Coordinates
version=1
nRows=8
nColumns=36
inDegrees=yes

Units are S.I. units (second, meters, Newtons, ...)
If the header above contains a line with 'inDegrees', this indicates whether rotational values are in degrees (yes) or radians (no).

endheader
time	pelvis_tilt	pelvis_list	pelvis_rotation	pelvis_tx	pelvis_ty	pelvis_tz	hip_flexion_r	hip_adduction_r	hip_rotation_r	knee_angle_r	knee_angle_r_beta	ankle_angle_r	subtalar_angle_r	mtp_angle_r	hip_flexion_l	hip_adduction_l	hip_rotation_l	knee_angle_l	knee_angle_l_beta	ankle_angle_l	subtalar_angle_l	mtp_angle_l	lumbar_extension	lumbar_bending	lumbar_rotation	arm_flex_r	arm_add_r	arm_rot_r	elbow_flex_r	pro_sup_r	arm_flex_l	arm_add_l	arm_rot_l	elbow_flex_l	pro_sup_l
     10.45000000	    -25.12960458	      2.49311495	      2.62769405	     -0.38653973	      0.71546331	     -0.64892446	     86.48617366	    -10.91099643	      0.76216998	     79.12133066	      1.38092773	     24.09075287	     -3.86806079	     -7.49999987	     83.92850027	     -7.24361083	     -2.11953203	     72.66287034	      1.26820633	     19.42011384	     -3.74510107	     -7.49999987	    -23.39093093	      0.84339818	     -2.28099596	     71.73365267	    -16.95295176	     29.00975021	    108.77332138	     97.01955499	     61.73085378	    -19.52370092	     18.40264641	    114.51502291	    103.60939536
     10.46000000	    -24.99533457	      2.47450512	      2.47483948	     -0.38961174	      0.70930860	     -0.65041417	     87.35511229	    -10.88957840	      0.97764051	     80.11951391	      1.39834931	     24.17009334	     -3.75883603	     -7.49999987	     84.82880704	     -7.40494171	     -2.12920609	     73.86874208	      1.28925276	     19.69881816	     -3.76611105	     -7.49999987	    -23.71482622	      0.93054141	     -2.25932912	     72.51774473	    -16.86124825	     29.40502875	    108.50094185	     96.95923489	     62.66231652	    -19.69498168	     18.91182089	    114.21491115	    103.59302139
     10.47000000	    -24.78388111	      2.46159124	      2.33933315	     -0.39269088	      0.70319439	     -0.65187062	     88.15200692	    -10.88125782	      1.22757049	     81.12170742	      1.41584089	     24.28351260	     -3.56233383	     -7.49999987	     85.66509925	     -7.55351159	     -2.13885888	     75.08273510	      1.31044094	     20.02775360	     -3.68842778	     -7.49999987	    -24.12922080	      1.01072625	     -2.23932814	     73.32382648	    -16.83213394	     29.81100272	    108.25725637	     96.87428276	     63.68617978	    -19.92958141	     19.42619505	    113.93505719	    103.58146197
     10.48000000	    -24.54445195	      2.45161126	      2.21119145	     -0.39569776	      0.69704091	     -0.65336802	     88.92624350	    -10.90605267	      1.43880517	     82.12219626	      1.43330271	     24.37643887	     -3.41515988	     -7.49999987	     86.46603201	     -7.67458317	     -2.11762749	     76.29023794	      1.33151584	     20.28017819	     -3.66397803	     -7.49999987	    -24.55507009	      1.08409290	     -2.27159721	     74.05233194	    -16.73239611	     30.10247898	    108.07815990	     96.84435054	     64.64706257	    -20.30815356	     19.95344419	    113.79877221	    103.57884827
     10.49000000	    -24.31798643	      2.44713022	      2.15483570	     -0.39880258	      0.69088993	     -0.65494993	     89.71470025	    -10.98998915	      1.68199471	     83.09412088	      1.45026600	     24.40768145	     -3.44505748	     -7.49999987	     87.28167209	     -7.68738578	     -2.08059351	     77.42904215	      1.35139172	     20.36442804	     -3.74812388	     -7.49999987	    -24.99682833	      1.18299045	     -2.33631015	     74.68941056	    -16.56873810	     30.07441465	    108.06364244	     96.84281653	     65.53114904	    -20.48667572	     19.98958777	    113.73506554	    103.56356473
     10.50000000	    -23.87311875	      2.50835291	      2.04462137	     -0.40171524	      0.68496809	     -0.65632150	     90.32024597	    -11.08009391	      1.91511318	     84.15285266	      1.46874435	     24.45476206	     -3.20328086	     -7.49999987	     87.85815658	     -7.78781518	     -2.14065432	     78.64686288	      1.37264670	     20.66671968	     -3.73063613	     -7.49999987	    -25.58873310	      1.14387364	     -2.52629528	     75.49657106	    -16.53280236	     30.69661775	    107.70091364	     96.84081636	     66.76494770	    -21.25153978	     21.06228233	    113.54387647	    103.55579329
     10.51000000	    -23.44915193	      2.58629769	      1.99438340	     -0.40478090	      0.67903316	     -0.65765829	     90.93512258	    -11.17379849	      2.22426645	     85.14991799	      1.48614643	     24.58722337	     -2.95876307	     -7.49999987	     88.42694079	     -7.78618456	     -2.16133189	     79.75745495	      1.39203019	     20.95600437	     -3.62443503	     -7.49999987	    -26.18122585	      1.10466691	     -2.70638288	     76.26376475	    -16.42521565	     31.00912506	    107.51235068	     96.82571465	     68.12136532	    -21.60778993	     21.51990066	    113.29150221	    103.51787504
     10.52000000	    -23.05898090	      2.61412134	      1.93865723	     -0.40782280	      0.67290375	     -0.65889430	     91.58426639	    -11.22637540	      2.48952345	     86.15350062	      1.50366225	     24.66794213	     -2.81651397	     -7.49999987	     89.07387005	     -7.79278019	     -2.11010980	     80.89888309	      1.41195187	     21.15436459	     -3.58966656	     -7.49999987	    -26.65521729	      1.11009841	     -2.85098140	     76.88002104	    -16.30863466	     31.21713013	    107.36835004	     96.77789922	     69.42700925	    -22.04065568	     21.97081917	    113.00262923	    103.53363096
